<svg width="200" height="200" xmlns="http://www.w3.org/2000/svg">
 <!-- Created with Method Draw - http://github.com/duopixel/Method-Draw/ -->

 <g>
  <title>background</title>
 </g>
 <g>
  <title>Layer 1</title>
  <ellipse stroke-opacity="0" ry="100" rx="100" id="svg_23" cy="100" cx="100" stroke-width="1.5" stroke="#0f0f00" fill="#040404"/>
  <g fill="#fff" id="svg_22">
   <g stroke="null" transform="matrix(4.588829179163665,0,0,4.588829179163665,3.753746456488443,8.753747650043806) " id="svg_5">
    <path stroke="null" id="svg_6" d="m8.59903,11.38443c0,-1.104 0.896,-2 2,-2l20.75,0c1.104,0 2,0.896 2,2s-0.896,2 -2,2l-20.75,0c-1.104,0 -2,-0.896 -2,-2zm22.75,6.5l-20.75,0c-1.104,0 -2,0.896 -2,2c0,1.104 0.896,2 2,2l20.75,0c1.104,0 2,-0.896 2,-2c0,-1.104 -0.895,-2 -2,-2zm0,8.5l-20.75,0c-1.104,0 -2,0.896 -2,2s0.896,2 2,2l20.75,0c1.104,0 2,-0.896 2,-2s-0.895,-2 -2,-2z"/>
   </g>
   <g stroke="null" transform="matrix(4.588829179163665,0,0,4.588829179163665,3.753746456488443,8.753747650043806) " id="svg_7"/>
   <g stroke="null" transform="matrix(4.588829179163665,0,0,4.588829179163665,3.753746456488443,8.753747650043806) " id="svg_8"/>
   <g stroke="null" transform="matrix(4.588829179163665,0,0,4.588829179163665,3.753746456488443,8.753747650043806) " id="svg_9"/>
   <g stroke="null" transform="matrix(4.588829179163665,0,0,4.588829179163665,3.753746456488443,8.753747650043806) " id="svg_10"/>
   <g stroke="null" transform="matrix(4.588829179163665,0,0,4.588829179163665,3.753746456488443,8.753747650043806) " id="svg_11"/>
   <g stroke="null" transform="matrix(4.588829179163665,0,0,4.588829179163665,3.753746456488443,8.753747650043806) " id="svg_12"/>
   <g stroke="null" transform="matrix(4.588829179163665,0,0,4.588829179163665,3.753746456488443,8.753747650043806) " id="svg_13"/>
   <g stroke="null" transform="matrix(4.588829179163665,0,0,4.588829179163665,3.753746456488443,8.753747650043806) " id="svg_14"/>
   <g stroke="null" transform="matrix(4.588829179163665,0,0,4.588829179163665,3.753746456488443,8.753747650043806) " id="svg_15"/>
   <g stroke="null" transform="matrix(4.588829179163665,0,0,4.588829179163665,3.753746456488443,8.753747650043806) " id="svg_16"/>
   <g stroke="null" transform="matrix(4.588829179163665,0,0,4.588829179163665,3.753746456488443,8.753747650043806) " id="svg_17"/>
   <g stroke="null" transform="matrix(4.588829179163665,0,0,4.588829179163665,3.753746456488443,8.753747650043806) " id="svg_18"/>
   <g stroke="null" transform="matrix(4.588829179163665,0,0,4.588829179163665,3.753746456488443,8.753747650043806) " id="svg_19"/>
   <g stroke="null" transform="matrix(4.588829179163665,0,0,4.588829179163665,3.753746456488443,8.753747650043806) " id="svg_20"/>
   <g stroke="null" transform="matrix(4.588829179163665,0,0,4.588829179163665,3.753746456488443,8.753747650043806) " id="svg_21"/>
  </g>
 </g>
</svg>