<?xml version="1.0" encoding="iso-8859-1"?>
<!-- Generator: Adobe Illustrator 19.0.0, SVG Export Plug-In . SVG Version: 6.00 Build 0)  -->
<svg version="1.1" id="Capa_1" xmlns="http://www.w3.org/2000/svg" xmlns:xlink="http://www.w3.org/1999/xlink" x="0px" y="0px"
	 viewBox="0 0 490 490" style="enable-background:new 0 0 490 490;" xml:space="preserve">
<g fill="#efefef">
	<g>
		<g>
			<path d="M277.7,439.8v24.9c-11.5,7.1-41.3,15.7-64.6,0v-24.9c-44.3,3.1-76.6,12.8-76.6,24.5c0,14,49,25.7,109.3,25.7
				s109.3-11.7,109.3-25.7C354.3,452.7,322,442.9,277.7,439.8z"/>
			<path d="M245,273c78.6,0,141.9-61.1,141.9-136.5S323.6,0,245,0S103.1,61.1,103.1,136.5S166.4,273,245,273z M237.2,255.9
				c-26.4,0-47.4-11.3-47.4-25.3c0-10.5,18.3-13.6,41.2-45.5c19.5,5.4,34.6-1.6,42.8-7c6.2,21.8,10.9,45.9,10.9,52.5
				C285.1,244.6,263.7,255.9,237.2,255.9z M217,136.5c0-15.6,12.4-28,28-28s28,12.4,28,28s-12.4,28-28,28S217,152.1,217,136.5z
				 M364.4,144.3c0,26.4-11.3,47.4-25.3,47.4c-10.5,0-13.6-18.3-45.5-41.2c1.2-4.3,6.6-25.2-7-43.2c21.8-6.2,45.9-10.9,52.5-10.9
				C353.1,96.4,364.4,117.8,364.4,144.3z M252.8,17.1c26.4,0,47.4,11.3,47.4,25.3c0,10.5-18.3,13.6-41.2,45.5
				c-4.3-1.6-24.5-6.6-43.2,6.6c-6.2-21.8-10.9-45.9-10.9-52.5C204.9,28.4,226.3,17.1,252.8,17.1z M125.6,128.7
				c0-26.4,11.3-47.4,25.3-47.4c10.5,0,13.6,18.3,45.5,41.2c-5,16.4,1.6,34.6,7,42.8c-21.8,6.2-45.9,10.9-52.5,10.9
				C136.9,176.6,125.6,155.2,125.6,128.7z"/>
			<g>
				<path d="M232.2,292.1v160.2c8.2,3.9,17.5,3.9,25.7,0V292.1C249.3,292.4,240.7,293.1,232.2,292.1z"/>
			</g>
		</g>
	</g>
</g>
<g>
</g>
<g>
</g>
<g>
</g>
<g>
</g>
<g>
</g>
<g>
</g>
<g>
</g>
<g>
</g>
<g>
</g>
<g>
</g>
<g>
</g>
<g>
</g>
<g>
</g>
<g>
</g>
<g>
</g>
</svg>
