<svg width="500" height="500" viewBox="0 0 500 500" fill="none" xmlns="http://www.w3.org/2000/svg">
<g clip-path="url(#clip0)">
<path d="M380.299 46.3022L256.865 169.736C252.855 173.745 246.353 173.745 242.344 169.736L118.91 46.3022C98.8614 26.2535 66.3509 26.2534 46.3022 46.3022C26.2535 66.3509 26.2535 98.8614 46.3022 118.91L169.736 242.344C173.745 246.353 173.745 252.855 169.736 256.865L46.3022 380.299C26.2535 400.347 26.2535 432.858 46.3022 452.907C66.3509 472.955 98.8614 472.955 118.91 452.907L242.344 329.473C246.353 325.463 252.855 325.463 256.865 329.473L380.299 452.907C400.347 472.955 432.858 472.955 452.907 452.907C472.955 432.858 472.955 400.347 452.907 380.299L329.473 256.865C325.463 252.855 325.463 246.353 329.473 242.344L452.907 118.91C472.955 98.8614 472.955 66.3509 452.907 46.3022C432.858 26.2535 400.347 26.2535 380.299 46.3022V46.3022Z" fill="white"/>
</g>
<defs>
<clipPath id="clip0">
<rect width="500" height="500" fill="white"/>
</clipPath>
</defs>
</svg>
